<?xml version="1.0" encoding="UTF-8" standalone="no"?>
<!DOCTYPE svg PUBLIC "-//W3C//DTD SVG 1.1//EN" "http://www.w3.org/Graphics/SVG/1.1/DTD/svg11.dtd">
<svg width="100%" height="100%" viewBox="0 0 945 945" version="1.1" xmlns="http://www.w3.org/2000/svg" xmlns:xlink="http://www.w3.org/1999/xlink" xml:space="preserve" xmlns:serif="http://www.serif.com/" style="fill-rule:evenodd;clip-rule:evenodd;stroke-linejoin:round;stroke-miterlimit:2;">
    <g transform="matrix(0.385196,0,0,0.431433,-4.01556,-3.14877)">
        <rect id="Mesa-de-trabajo1" serif:id="Mesa de trabajo1" x="10.425" y="7.298" width="2452.99" height="2190.1" style="fill:none;"/>
        <g id="Mesa-de-trabajo11" serif:id="Mesa de trabajo1">
            <g transform="matrix(1,0,0,1,44.902,0)">
                <g transform="matrix(2.59608,0,0,2.31786,-824.235,-1470.97)">
                    <path d="M846.891,829.487L846.891,1004.68C816.812,967.963 789.859,942.768 766.031,929.096C742.594,915.034 715.055,908.002 683.414,908.002C633.805,908.002 592.594,925.385 559.781,960.151C526.969,994.916 510.562,1038.47 510.562,1090.82C510.562,1144.33 526.383,1188.28 558.023,1222.65C590.055,1257.03 630.875,1274.21 680.484,1274.21C712.125,1274.21 740.055,1267.38 764.273,1253.7C787.711,1240.42 815.25,1214.64 846.891,1176.36L846.891,1350.38C793.375,1378.12 739.859,1391.99 686.344,1391.99C598.062,1391.99 524.234,1363.47 464.859,1306.44C405.484,1249.02 375.797,1177.73 375.797,1092.57C375.797,1007.42 405.875,935.541 466.031,876.948C526.187,818.354 600.016,789.057 687.516,789.057C743.766,789.057 796.891,802.534 846.891,829.487Z" style="fill:white;fill-rule:nonzero;"/>
                </g>
                <g transform="matrix(1,0,0,1,149.823,-8.27161)">
                    <g transform="matrix(2.59608,0,0,2.31786,-1692.79,-1386.24)">
                        <circle cx="1373.46" cy="840.019" r="80.884" style="fill:white;"/>
                    </g>
                    <g transform="matrix(2.59608,0,0,2.31786,-1670.31,-1491.27)">
                        <path d="M1283.16,1334.97L1445.7,1334.97L1445.7,1406.58L1283.16,1406.58L1283.16,1334.97ZM1445.7,1252.17L1283.16,1252.17L1283.16,1168.14L1445.7,1168.14L1445.7,1252.17ZM1445.7,1085.34L1283.16,1085.34L1283.16,1002.61L1445.7,1002.61L1445.7,1085.34Z" style="fill:white;"/>
                    </g>
                </g>
            </g>
        </g>
    </g>
</svg>
